<svg width="23" height="24" viewBox="0 0 23 24" fill="none" xmlns="http://www.w3.org/2000/svg">
<path d="M9.16016 17.1211C9.66797 17.3789 10.1289 17.6953 10.543 18.0703C10.957 18.4453 11.3086 18.8672 11.5977 19.3359C11.8867 19.8047 12.1094 20.3047 12.2656 20.8359C12.4219 21.3672 12.5 21.9219 12.5 22.5H11C11 21.8828 10.8828 21.3008 10.6484 20.7539C10.4141 20.207 10.0938 19.7305 9.6875 19.3242C9.28125 18.918 8.80078 18.5938 8.24609 18.3516C7.69141 18.1094 7.10938 17.9922 6.5 18C5.875 18 5.29297 18.1172 4.75391 18.3516C4.21484 18.5859 3.73828 18.9062 3.32422 19.3125C2.91016 19.7188 2.58594 20.1992 2.35156 20.7539C2.11719 21.3086 2 21.8906 2 22.5H0.5C0.5 21.9297 0.578125 21.3789 0.734375 20.8477C0.890625 20.3164 1.11328 19.8125 1.40234 19.3359C1.69141 18.8594 2.04297 18.4375 2.45703 18.0703C2.87109 17.7031 3.33203 17.3867 3.83984 17.1211C3.26172 16.6992 2.8125 16.1719 2.49219 15.5391C2.17188 14.9062 2.00781 14.2266 2 13.5C2 12.8828 2.11719 12.3008 2.35156 11.7539C2.58594 11.207 2.90625 10.7305 3.3125 10.3242C3.71875 9.91797 4.19531 9.59375 4.74219 9.35156C5.28906 9.10938 5.875 8.99219 6.5 9C7.21875 9 7.89453 9.16016 8.52734 9.48047C9.16016 9.80078 9.69141 10.2539 10.1211 10.8398C10.418 10.2539 10.7969 9.73047 11.2578 9.26953C11.7188 8.80859 12.2461 8.42969 12.8398 8.13281C12.2617 7.70312 11.8125 7.17188 11.4922 6.53906C11.1719 5.90625 11.0078 5.22656 11 4.5C11 3.88281 11.1172 3.30078 11.3516 2.75391C11.5859 2.20703 11.9062 1.73047 12.3125 1.32422C12.7188 0.917969 13.1953 0.59375 13.7422 0.351562C14.2891 0.109375 14.875 -0.0078125 15.5 0C16.1172 0 16.6992 0.117188 17.2461 0.351562C17.793 0.585938 18.2695 0.90625 18.6758 1.3125C19.082 1.71875 19.4062 2.19922 19.6484 2.75391C19.8906 3.30859 20.0078 3.89062 20 4.5C20 5.23438 19.832 5.92578 19.4961 6.57422C19.1602 7.22266 18.6914 7.75781 18.0898 8.17969C18.457 8.375 18.8086 8.60547 19.1445 8.87109C19.4805 9.13672 19.7852 9.4375 20.0586 9.77344C20.332 10.1094 20.5781 10.4609 20.7969 10.8281C21.0156 11.1953 21.1836 11.5859 21.3008 12H19.7305C19.5586 11.5938 19.3281 11.2109 19.0391 10.8516C18.75 10.4922 18.418 10.1719 18.043 9.89062C17.668 9.60938 17.2656 9.39453 16.8359 9.24609C16.4062 9.09766 15.9609 9.01953 15.5 9.01172C14.875 9.01172 14.293 9.12891 13.7539 9.36328C13.2148 9.59766 12.7383 9.91797 12.3242 10.3242C11.9102 10.7305 11.5859 11.207 11.3516 11.7539C11.1172 12.3008 11 12.8828 11 13.5C11 14.2188 10.8398 14.8945 10.5195 15.5273C10.1992 16.1602 9.74609 16.6914 9.16016 17.1211ZM15.5 1.5C15.0859 1.5 14.6992 1.57812 14.3398 1.73438C13.9805 1.89062 13.6602 2.10547 13.3789 2.37891C13.0977 2.65234 12.8828 2.96875 12.7344 3.32812C12.5859 3.6875 12.5078 4.07812 12.5 4.5C12.5 4.91406 12.5781 5.30078 12.7344 5.66016C12.8906 6.01953 13.1055 6.33984 13.3789 6.62109C13.6523 6.90234 13.9688 7.11719 14.3281 7.26562C14.6875 7.41406 15.0781 7.49219 15.5 7.5C15.9141 7.5 16.3008 7.42188 16.6602 7.26562C17.0195 7.10938 17.3398 6.89453 17.6211 6.62109C17.9023 6.34766 18.1172 6.03125 18.2656 5.67188C18.4141 5.3125 18.4922 4.92188 18.5 4.5C18.5 4.08594 18.4219 3.69922 18.2656 3.33984C18.1094 2.98047 17.8945 2.66016 17.6211 2.37891C17.3477 2.09766 17.0312 1.88281 16.6719 1.73438C16.3125 1.58594 15.9219 1.50781 15.5 1.5ZM3.5 13.5C3.5 13.9141 3.57812 14.3008 3.73438 14.6602C3.89062 15.0195 4.10547 15.3398 4.37891 15.6211C4.65234 15.9023 4.96875 16.1172 5.32812 16.2656C5.6875 16.4141 6.07812 16.4922 6.5 16.5C6.91406 16.5 7.30078 16.4219 7.66016 16.2656C8.01953 16.1094 8.33984 15.8945 8.62109 15.6211C8.90234 15.3477 9.11719 15.0312 9.26562 14.6719C9.41406 14.3125 9.49219 13.9219 9.5 13.5C9.5 13.0859 9.42188 12.6992 9.26562 12.3398C9.10938 11.9805 8.89453 11.6602 8.62109 11.3789C8.34766 11.0977 8.03125 10.8828 7.67188 10.7344C7.3125 10.5859 6.92188 10.5078 6.5 10.5C6.08594 10.5 5.69922 10.5781 5.33984 10.7344C4.98047 10.8906 4.66016 11.1055 4.37891 11.3789C4.09766 11.6523 3.88281 11.9688 3.73438 12.3281C3.58594 12.6875 3.50781 13.0781 3.5 13.5ZM23 18V24H15.5V18H16.25V16.5C16.25 16.0859 16.3281 15.6992 16.4844 15.3398C16.6406 14.9805 16.8555 14.6602 17.1289 14.3789C17.4023 14.0977 17.7188 13.8828 18.0781 13.7344C18.4375 13.5859 18.8281 13.5078 19.25 13.5C19.6641 13.5 20.0508 13.5781 20.4102 13.7344C20.7695 13.8906 21.0898 14.1055 21.3711 14.3789C21.6523 14.6523 21.8672 14.9688 22.0156 15.3281C22.1641 15.6875 22.2422 16.0781 22.25 16.5V18H23ZM17.75 18H20.75V16.5C20.75 16.2891 20.7109 16.0938 20.6328 15.9141C20.5547 15.7344 20.4492 15.5781 20.3164 15.4453C20.1836 15.3125 20.0234 15.2031 19.8359 15.1172C19.6484 15.0312 19.4531 14.9922 19.25 15C19.0391 15 18.8438 15.0391 18.6641 15.1172C18.4844 15.1953 18.3281 15.3008 18.1953 15.4336C18.0625 15.5664 17.9531 15.7266 17.8672 15.9141C17.7812 16.1016 17.7422 16.2969 17.75 16.5V18ZM21.5 19.5H17V22.5H21.5V19.5Z" fill="#DEE2E6"/>
</svg>
