<svg width="22" height="22" viewBox="0 0 22 22" fill="none" xmlns="http://www.w3.org/2000/svg">
<path d="M20.57 11.66C20.43 11.26 20.05 11 19.6 11H12.41C11.95 11 11.58 11.26 11.43 11.66L10 15.77V21.28C10 21.66 10.32 22 10.7 22H11.32C11.7 22 12 21.62 12 21.24V20H20V21.24C20 21.62 20.31 22 20.69 22H21.3C21.68 22 22 21.66 22 21.28V15.77L20.57 11.66ZM12.41 12H19.6L20.63 15H11.38L12.41 12ZM12 18C11.45 18 11 17.55 11 17C11 16.45 11.45 16 12 16C12.55 16 13 16.45 13 17C13 17.55 12.55 18 12 18ZM20 18C19.45 18 19 17.55 19 17C19 16.45 19.45 16 20 16C20.55 16 21 16.45 21 17C21 17.55 20.55 18 20 18ZM5.66 13.53L6 16L4.95 17.06L3.19 13.88L0 12.11L1.06 11.03L3.56 11.4L7.43 7.53L0 3.62L1.42 2.21L10.61 4.33L14.5 0.440001C15.06 -0.144999 16.06 -0.144999 16.62 0.440001C17.21 1.03 17.21 2 16.62 2.56L12.73 6.45L13.55 10H12.41C11.54 10 10.79 10.5 10.5 11.31L10.47 11.37L9.56 9.63L5.66 13.53Z" fill="#DEE2E6"/>
</svg>
